<svg xmlns="http://www.w3.org/2000/svg" width="80" height="15" version="1.0"><defs><clipPath id="a" clipPathUnits="userSpaceOnUse"><path d="M171.998 239.12h20.614v12.484h-20.614z" style="fill:#000;fill-opacity:1;stroke:none;stroke-width:.92243534;stroke-miterlimit:4;stroke-dasharray:none;stroke-opacity:1"/></clipPath></defs><path d="M170.5 237.862h80v15h-80z" style="fill:#fff;fill-opacity:1;stroke:#000;stroke-width:1.04161763;stroke-miterlimit:4;stroke-dasharray:none;stroke-opacity:1" transform="matrix(.9875 0 0 .93335 -167.875 -221.476)"/><path d="M172 239.362h77v12h-77z" style="fill:#000;fill-opacity:1;stroke:none;stroke-width:.92243534;stroke-miterlimit:4;stroke-dasharray:none;stroke-opacity:1" transform="matrix(.9875 0 0 .93335 -167.875 -221.476)"/><path d="M172 239.375v12h20.335c1.308-1.75 2.192-3.784 2.192-6 0-2.2-.868-4.257-2.161-6z" style="fill:#abb1aa;fill-opacity:1;stroke:none;stroke-width:1;stroke-miterlimit:4;stroke-dasharray:none;stroke-opacity:.46913578" transform="matrix(.9875 0 0 .93335 -167.875 -221.476)"/><g clip-path="url(#a)" transform="matrix(.94924 0 0 .89719 -161.127 -212.603)"><path d="M190.064 245.362a7.047 7.047 0 0 1-14.094.009v-.009a7.047 7.047 0 1 1 14.094-.008z" style="opacity:1;fill:#fff"/><path d="M188.746 239.622q2.344 2.345 2.344 5.74t-2.304 5.68q-2.445 2.405-5.779 2.405-3.294 0-5.678-2.385t-2.385-5.7 2.385-5.74q2.324-2.344 5.678-2.344 3.395 0 5.739 2.344m-10.365 1.052q-1.982 2-1.982 4.69t1.962 4.65q1.96 1.962 4.67 1.961t4.71-1.98q1.901-1.841 1.901-4.63 0-2.77-1.931-4.701-1.93-1.931-4.68-1.931t-4.65 1.94m3.477 3.902q-.303-.66-.907-.66-1.07 0-1.07 1.438 0 1.44 1.07 1.439.705 0 1.008-.702l.987.526q-.706 1.255-2.118 1.255-1.09 0-1.745-.668-.656-.668-.656-1.842 0-1.154.676-1.831.675-.68 1.684-.679 1.494 0 2.14 1.176zm4.646 0q-.303-.66-.889-.66-1.09 0-1.09 1.438 0 1.44 1.09 1.439.706 0 .99-.702l1.01.526q-.705 1.255-2.116 1.255-1.088 0-1.742-.668t-.654-1.842q0-1.154.664-1.831.665-.68 1.692-.679 1.491 0 2.135 1.176z" style="opacity:1"/></g><path d="M357.42 331.685q.368 0 .558-.16.19-.162.19-.475 0-.31-.19-.47-.19-.165-.558-.165h-.862v1.27zm.052 2.624q.47 0 .704-.197.24-.197.24-.594-.001-.39-.236-.583-.234-.197-.708-.197h-.914v1.571zm1.449-2.158q.501.145.777.535.275.39.275.956 0 .868-.59 1.294-.592.426-1.797.426H355v-6h2.339q1.259 0 1.82.378.567.378.567 1.21 0 .437-.206.747a1.2 1.2 0 0 1-.6.454m.917-2.789h1.704l1.376 2.138 1.375-2.138H366l-2.302 3.472v2.528h-1.558v-2.528zm5.321 3.046h2.541v1.17h-2.54zm3.758-3.046h1.74l2.197 4.115v-4.115h1.477v6h-1.74l-2.197-4.115v4.115h-1.477zm11.735 5.67a4 4 0 0 1-1.866.447q-1.509 0-2.391-.836-.882-.84-.882-2.275 0-1.438.882-2.274.882-.84 2.391-.84.507 0 .971.112.466.112.895.334v1.242a3.4 3.4 0 0 0-.854-.43 2.9 2.9 0 0 0-.886-.137q-.834 0-1.311.53-.478.531-.478 1.463 0 .929.478 1.459.477.53 1.31.53.466 0 .887-.136.42-.137.854-.43z" style="font-size:8.25858784px;font-style:normal;font-weight:700;fill:#fff;fill-opacity:1;stroke:none;stroke-width:1px;stroke-linecap:butt;stroke-linejoin:miter;stroke-opacity:1;font-family:&quot;Bitstream Vera Sans&quot;" transform="matrix(.9875 0 0 .93335 -323.9 -302.677)"/></svg>