<svg xmlns="http://www.w3.org/2000/svg" xml:space="preserve" width="80" height="15"><path fill="#FFF" d="M0 0h80v15H0z"/><path d="M22.797 2a10.3 10.3 0 0 1 .001 11H80V2zM12.42 2.031c-3.137 0-3.926 2.959-3.926 5.469s.787 5.469 3.926 5.469c3.137 0 3.924-2.959 3.924-5.469s-.787-5.469-3.924-5.469m0 2.063c.127 0 .242.02.352.047.227.193.336.463.121.838l-2.09 3.838a10 10 0 0 1-.074-1.317c0-1.105.078-3.406 1.691-3.406m1.562 1.769c.111.588.127 1.203.127 1.637 0 1.105-.076 3.406-1.689 3.406q-.19 0-.354-.039l-.061-.021-.098-.031c-.359-.154-.586-.43-.26-.92z"/><path d="M21.229 3.848A9.15 9.15 0 0 0 19.194.782 10 10 0 0 0 18.302 0h-3.708c1.248.348 2.367 1.009 3.354 1.998q1.105 1.105 1.684 2.516c.579 1.411.578 1.936.578 2.986 0 2.184-.746 3.994-2.227 5.441a8.2 8.2 0 0 1-2.596 1.717 8 8 0 0 1-1.046.342h3.892c.336-.257.664-.529.972-.834a8.6 8.6 0 0 0 2.021-3c.465-1.143.693-2.363.693-3.666a9.6 9.6 0 0 0-.69-3.652M6.957 12.975a8.1 8.1 0 0 1-1.729-2.527 7.6 7.6 0 0 1-.6-2.947c0-1.029.203-2.016.6-2.955a8.2 8.2 0 0 1 1.729-2.561C7.916 1.004 9.021.346 10.268 0H6.58a10 10 0 0 0-.848.762 9.6 9.6 0 0 0-2.101 3.125A9.4 9.4 0 0 0 2.92 7.5q0 1.901.711 3.613c.711 1.712 1.164 2.17 2.068 3.086.295.291.606.553.924.801h3.88a8 8 0 0 1-1.019-.328 8 8 0 0 1-2.527-1.697"/><path d="M80 0v15H0V0zm-.75.75H.75v13.5h78.5z"/><g fill="#FFF"><path d="M30.514 8.106q-.418.35-1.197.35h-.993v1.717h-.991V5.398h2.05q.709 0 1.13.369c.421.369.422.628.422 1.144q-.001.846-.421 1.195m-.761-1.719q-.19-.159-.531-.159h-.898v1.406h.898q.341 0 .531-.172.189-.171.189-.544t-.189-.531M31.733 5.398h1.015v2.933q0 .492.116.718.18.402.787.401.603 0 .784-.401.116-.226.116-.718V5.398h1.014v2.935q0 .761-.236 1.186-.44.778-1.678.777-1.24 0-1.682-.777-.236-.424-.236-1.186zM40.085 5.907q.219.305.219.729 0 .438-.221.703-.124.15-.364.272.365.133.551.421c.186.288.187.425.187.699q0 .425-.213.761a1.33 1.33 0 0 1-.877.616 3.3 3.3 0 0 1-.675.064H36.54V5.398h2.308q.873.014 1.237.509m-2.593.321V7.28h1.16a.96.96 0 0 0 .505-.118q.195-.119.194-.419 0-.334-.257-.44a1.8 1.8 0 0 0-.563-.075zm0 1.842v1.273h1.159q.31 0 .483-.084.313-.156.313-.597 0-.372-.304-.512a1.3 1.3 0 0 0-.476-.08zM41.313 5.398h.998v3.916h2.384v.858h-3.382zM46.275 10.173h-.991V5.398h.991zM47.665 5.897q.577-.59 1.468-.59 1.192 0 1.743.791.304.444.327.891h-.998q-.095-.344-.244-.519-.267-.31-.79-.311-.533 0-.841.438c-.308.438-.308.707-.308 1.242s.108.937.324 1.203q.325.4.826.4.513 0 .782-.344.15-.185.247-.554h.991q-.129.78-.655 1.27c-.526.49-.802.489-1.351.489q-1.02 0-1.603-.661Q47 8.979 47 7.822q.003-1.247.665-1.925M54.797 5.502q.502.165.813.606.25.356.341.771c.091.415.091.54.091.79q0 .953-.383 1.613-.519.891-1.602.891h-2.059V5.398h2.059q.446.008.74.104m-1.829.726v3.116h.922q.707 0 .985-.696a2.5 2.5 0 0 0 .152-.91q0-.729-.229-1.119c-.229-.39-.455-.391-.909-.391zM60.466 9.749q-.54.557-1.564.557c-1.024 0-1.204-.186-1.564-.557q-.725-.684-.726-1.97 0-1.312.726-1.97.54-.557 1.564-.557c1.024 0 1.204.186 1.564.557q.722.657.722 1.97 0 1.286-.722 1.97m-.624-.726q.348-.437.349-1.244 0-.802-.349-1.242-.347-.439-.94-.438c-.593.001-.711.146-.946.437q-.353.438-.353 1.244c0 .806.117.952.353 1.244q.353.437.946.437c.593 0 .708-.147.94-.438M65.116 5.398h1.436v4.774h-.929V6.943l.003-.39.003-.388-.904 4.007h-.97l-.898-4.007.003.388q.004.25.004.39v3.229h-.93V5.398h1.451l.869 3.754zM68.84 5.398h1.129l1.689 4.774h-1.082l-.314-.981h-1.759l-.323.981h-1.044zm-.066 2.971h1.223l-.602-1.879zM73.175 10.173h-.991V5.398h.991zM74.093 5.398h1.046l1.895 3.329V5.398h.93v4.774h-.997l-1.943-3.388v3.388h-.93V5.398z"/></g></svg>